<?xml version="1.0" encoding="UTF-8"?>
<svg xmlns="http://www.w3.org/2000/svg" width="400" height="400" viewBox="0 0 400 400">
  <title>Bird base on a unit square</title>
  <rect x="0" y="0" width="400" height="400" fill="#ffffff"/>
  <g fill="none" stroke-linecap="round" stroke-linejoin="round">
    <path d="M 253.892 253.892 L 292 292" stroke="#bdbdbd" stroke-width="0.6"/>
    <path d="M 253.892 146.108 L 292 108" stroke="#bdbdbd" stroke-width="0.6"/>
    <path d="M 146.108 146.108 L 108 108" stroke="#bdbdbd" stroke-width="0.6"/>
    <path d="M 146.108 253.892 L 108 292" stroke="#bdbdbd" stroke-width="0.6"/>
    <path d="M 200 384 L 200 200" stroke="#1a1a1a" stroke-width="1" stroke-dasharray="6 3.5"/>
    <path d="M 200 200 L 200 16" stroke="#1a1a1a" stroke-width="1" stroke-dasharray="6 3.5"/>
    <path d="M 200 200 L 253.892 253.892" stroke="#1a1a1a" stroke-width="1" stroke-dasharray="9 3 1.2 3 1.2 3"/>
    <path d="M 253.892 253.892 L 200 384" stroke="#1a1a1a" stroke-width="1" stroke-dasharray="9 3 1.2 3 1.2 3"/>
    <path d="M 253.892 253.892 L 384 200" stroke="#1a1a1a" stroke-width="1" stroke-dasharray="9 3 1.2 3 1.2 3"/>
    <path d="M 200 200 L 253.892 146.108" stroke="#1a1a1a" stroke-width="1" stroke-dasharray="9 3 1.2 3 1.2 3"/>
    <path d="M 253.892 146.108 L 384 200" stroke="#1a1a1a" stroke-width="1" stroke-dasharray="9 3 1.2 3 1.2 3"/>
    <path d="M 253.892 146.108 L 200 16" stroke="#1a1a1a" stroke-width="1" stroke-dasharray="9 3 1.2 3 1.2 3"/>
    <path d="M 200 200 L 146.108 146.108" stroke="#1a1a1a" stroke-width="1" stroke-dasharray="9 3 1.2 3 1.2 3"/>
    <path d="M 146.108 146.108 L 200 16" stroke="#1a1a1a" stroke-width="1" stroke-dasharray="9 3 1.2 3 1.2 3"/>
    <path d="M 146.108 146.108 L 16 200" stroke="#1a1a1a" stroke-width="1" stroke-dasharray="9 3 1.2 3 1.2 3"/>
    <path d="M 200 200 L 146.108 253.892" stroke="#1a1a1a" stroke-width="1" stroke-dasharray="9 3 1.2 3 1.2 3"/>
    <path d="M 146.108 253.892 L 16 200" stroke="#1a1a1a" stroke-width="1" stroke-dasharray="9 3 1.2 3 1.2 3"/>
    <path d="M 146.108 253.892 L 200 384" stroke="#1a1a1a" stroke-width="1" stroke-dasharray="9 3 1.2 3 1.2 3"/>
    <path d="M 253.892 253.892 L 253.892 146.108" stroke="#1a1a1a" stroke-width="1" stroke-dasharray="6 3.5"/>
    <path d="M 146.108 146.108 L 146.108 253.892" stroke="#1a1a1a" stroke-width="1" stroke-dasharray="6 3.5"/>
    <path d="M 200 384 L 292 292" stroke="#1a1a1a" stroke-width="1.6"/>
    <path d="M 292 292 L 384 200" stroke="#1a1a1a" stroke-width="1.6"/>
    <path d="M 384 200 L 292 108" stroke="#1a1a1a" stroke-width="1.6"/>
    <path d="M 292 108 L 200 16" stroke="#1a1a1a" stroke-width="1.6"/>
    <path d="M 200 16 L 108 108" stroke="#1a1a1a" stroke-width="1.6"/>
    <path d="M 108 108 L 16 200" stroke="#1a1a1a" stroke-width="1.6"/>
    <path d="M 16 200 L 108 292" stroke="#1a1a1a" stroke-width="1.6"/>
    <path d="M 108 292 L 200 384" stroke="#1a1a1a" stroke-width="1.6"/>
  </g>
</svg>
